<?xml version="1.0" encoding="UTF-8" standalone="no"?>
<!DOCTYPE svg PUBLIC "-//W3C//DTD SVG 1.1//EN" "http://www.w3.org/Graphics/SVG/1.1/DTD/svg11.dtd">
<svg xmlns="http://www.w3.org/2000/svg" version="1.1" viewBox="0 0 925 270" width="925.0pt" height="270.0pt">
<path d="M 0.00 0.00 L 925.00 0.00 L 925.00 270.00 L 0.00 270.00 L 0.00 0.00 Z" fill="#ffffff" />
<path d="M 169.70 13.90 C 174.48 25.41 179.07 37.00 183.88 48.50 C 178.32 51.09 172.67 53.49 167.14 56.14 C 149.71 64.95 133.35 75.74 118.83 88.82 C 111.98 94.63 105.81 101.15 100.08 108.05 C 92.91 116.86 85.81 126.44 80.98 136.75 C 77.28 131.45 72.87 125.86 70.16 120.04 C 71.96 112.62 75.20 105.43 78.35 98.49 C 91.73 70.56 112.97 46.84 138.83 29.88 C 148.62 23.84 158.88 17.87 169.70 13.90 Z" fill="#111111" />
<path d="M 398.96 41.33 C 410.79 45.69 421.98 53.20 430.46 62.55 C 434.12 66.81 437.33 71.77 440.43 76.43 C 430.08 83.08 419.18 88.87 408.87 95.56 C 403.35 88.95 396.84 81.82 388.79 78.40 C 382.93 76.02 376.12 75.76 369.91 76.62 C 362.50 77.71 355.42 84.14 355.49 91.98 C 355.02 97.92 358.52 103.68 363.75 106.38 C 371.48 110.55 379.40 112.89 387.43 115.88 C 400.18 121.03 412.27 125.27 423.34 133.75 C 429.43 137.94 434.66 143.13 438.63 149.38 C 451.07 169.12 446.98 197.99 429.49 213.47 C 425.42 217.31 421.23 220.77 416.22 223.32 C 407.18 227.84 397.13 231.43 387.03 232.46 C 368.36 235.11 348.54 230.69 332.81 220.25 C 328.18 216.63 323.32 212.95 319.48 208.51 C 313.56 202.20 309.41 194.77 306.27 186.74 C 313.17 182.78 320.27 179.17 327.26 175.37 C 331.35 173.26 335.29 170.82 339.51 169.02 C 342.56 175.05 346.86 180.62 351.87 185.16 C 360.30 192.70 372.16 195.43 383.18 193.58 C 389.41 192.80 396.00 189.91 398.93 184.00 C 400.99 180.50 400.84 176.89 400.70 172.97 C 400.64 168.30 397.55 163.78 393.81 161.18 C 385.80 155.25 375.59 151.74 366.23 148.61 C 354.06 144.28 342.53 139.61 332.04 131.92 C 325.56 126.74 319.60 120.10 316.63 112.25 C 313.25 105.09 312.36 96.84 312.46 89.01 C 312.41 76.74 318.59 64.70 327.27 56.25 C 332.68 50.56 339.35 46.74 346.42 43.49 C 362.98 36.61 381.90 35.99 398.96 41.33 Z" fill="#111111" />
<path d="M 629.49 39.23 C 643.56 39.07 657.71 39.23 671.79 39.16 C 671.71 102.49 671.89 165.87 671.69 229.20 C 657.66 229.14 643.61 229.11 629.58 229.21 C 629.44 226.81 629.38 224.41 629.40 222.00 C 629.49 161.29 629.31 99.84 629.49 39.23 Z" fill="#111111" />
<path d="M 699.40 39.26 C 713.47 39.03 727.62 39.26 741.70 39.14 C 741.73 51.02 741.68 62.89 741.73 74.77 C 727.60 74.71 713.46 74.77 699.32 74.74 C 699.43 62.92 699.24 51.07 699.40 39.26 Z" fill="#111111" />
<path d="M 158.03 63.68 C 175.85 70.04 192.57 79.71 207.23 91.65 C 229.72 110.14 247.24 134.34 258.01 161.37 C 246.48 166.07 234.92 170.75 223.45 175.60 C 221.22 170.80 219.17 165.92 216.79 161.19 C 206.74 140.17 193.23 120.73 177.04 103.97 C 166.16 92.57 153.55 83.18 140.05 75.10 C 146.00 71.23 151.88 67.26 158.03 63.68 Z" fill="#111111" />
<path d="M 582.39 102.58 C 591.49 110.42 598.25 120.51 602.39 131.77 C 607.10 145.60 607.06 159.50 605.48 173.87 C 602.33 174.19 599.17 174.21 596.00 174.16 C 566.66 174.14 537.32 174.17 507.98 174.14 C 510.72 183.27 517.92 190.40 526.88 193.51 C 533.75 196.03 541.77 196.03 549.00 195.67 C 557.97 195.19 566.25 192.24 574.21 188.24 C 582.17 195.65 589.92 203.28 597.80 210.78 C 589.53 218.87 579.57 224.95 568.41 228.12 C 556.56 231.76 544.30 232.27 532.01 231.36 C 513.88 229.43 496.58 221.21 483.65 208.35 C 473.17 197.72 466.98 183.78 465.03 169.05 C 462.31 147.28 469.46 122.98 486.19 108.19 C 498.15 96.76 513.67 89.62 530.03 87.45 C 548.49 84.86 567.80 91.30 582.39 102.58 Z" fill="#111111" />
<path d="M 852.00 87.30 C 861.22 86.83 870.93 88.53 879.16 92.81 C 890.30 98.22 898.74 109.19 903.01 120.64 C 905.28 127.84 906.97 135.43 907.30 142.99 C 907.25 171.71 907.34 200.43 907.26 229.15 C 893.23 229.23 879.19 229.03 865.17 229.18 C 864.94 203.12 865.14 177.04 865.06 150.98 C 864.93 144.41 864.44 137.79 861.08 131.97 C 859.16 128.55 855.69 126.23 851.98 125.14 C 844.32 123.09 836.28 124.55 829.46 128.45 C 821.99 132.43 816.49 140.35 812.78 147.76 C 810.92 151.12 811.66 154.32 811.53 158.00 C 811.55 181.74 811.56 205.47 811.53 229.21 C 797.52 229.14 783.50 229.08 769.50 229.24 C 769.33 182.62 769.50 135.95 769.41 89.32 C 783.46 89.33 797.51 89.29 811.56 89.33 C 811.42 97.81 811.77 106.32 811.35 114.79 C 813.14 109.74 816.69 105.23 820.52 101.55 C 828.82 93.15 840.16 87.82 852.00 87.30 Z" fill="#111111" />
<path d="M 741.72 89.30 C 741.65 135.93 741.79 182.57 741.65 229.20 C 727.55 228.94 713.39 229.52 699.31 228.90 C 699.39 182.40 699.31 135.86 699.36 89.36 C 713.47 89.22 727.60 89.37 741.72 89.30 Z" fill="#111111" />
<path d="M 52.46 90.45 C 64.80 119.69 81.59 146.37 104.98 168.04 C 116.78 179.31 130.35 188.05 144.63 195.82 C 139.05 198.98 133.61 202.40 128.04 205.60 C 124.03 204.51 120.06 203.41 116.20 201.86 C 100.34 195.62 85.30 187.73 71.96 177.04 C 59.67 167.42 48.71 156.09 39.35 143.61 C 30.28 131.65 23.74 118.41 17.59 104.80 C 29.21 100.01 40.90 95.37 52.46 90.45 Z" fill="#111111" />
<path d="M 137.53 115.82 C 148.28 112.97 159.84 118.99 163.50 129.51 C 167.23 139.68 162.49 151.21 152.89 156.06 C 143.52 160.97 131.60 158.05 125.50 149.45 C 121.06 143.36 120.18 135.11 123.17 128.19 C 125.71 122.10 131.15 117.48 137.53 115.82 Z" fill="#111111" />
<path d="M 554.46 127.70 C 561.04 131.26 565.27 137.29 567.82 144.19 C 547.99 144.23 528.16 144.21 508.32 144.19 C 511.48 136.36 517.28 129.44 525.17 126.10 C 534.45 121.86 545.68 122.48 554.46 127.70 Z" fill="#ffffff" />
<path d="M 202.84 142.04 C 207.01 149.01 210.98 155.99 214.69 163.22 C 206.03 182.50 194.11 200.19 179.08 215.07 C 166.74 227.64 151.70 237.86 136.26 246.23 C 131.25 248.68 126.08 250.81 121.10 253.33 C 116.50 241.66 111.60 230.10 106.90 218.47 C 113.29 215.25 119.94 212.61 126.24 209.23 C 155.54 194.14 183.00 171.99 201.33 144.38 C 201.83 143.60 202.34 142.82 202.84 142.04 Z" fill="#111111" />
</svg>